<svg xmlns="http://www.w3.org/2000/svg" width="566.627" height="426.246" viewBox="0 0 566.627 426.246"><g transform="translate(0.056 -0.001)"><path d="M769.969,511.657c-66.725,0-118.991-12.094-118.991-27.528,0-9.254,18.521-17.511,50.81-22.653a.9.9,0,0,1,.28,1.754c-30.417,4.844-49.314,12.853-49.314,20.9,0,13.959,53.679,25.755,117.215,25.755s117.215-11.793,117.215-25.755c0-8.08-19.018-16.109-49.63-20.951a.9.9,0,0,1,.278-1.753c32.493,5.137,51.129,13.415,51.129,22.7C888.962,499.565,836.685,511.657,769.969,511.657Z" transform="translate(-322.388 -238.153)" fill="#ccc"/><path d="M718.5,523.8a68.359,68.359,0,0,0,118.247-.3A1076.254,1076.254,0,0,1,718.5,523.8Z" transform="translate(-329.95 -245.113)" fill="#e6e6e6"/><path d="M842.1,491.132a68.373,68.373,0,1,0-131.3.71A508.154,508.154,0,0,0,842.1,491.132Z" transform="translate(-328.771 -231.729)" fill="#e6e6e6"/><path d="M398.462,217.993a7.993,7.993,0,1,0-11.1,7.366v41.474h6.217V225.357A7.993,7.993,0,0,0,398.462,217.993Z" transform="translate(-292.316 -210)" fill="#ccc"/><path d="M448.739,436.231h0a17.78,17.78,0,0,1-17.746-18.445,18.14,18.14,0,0,1,18.172-17.076h48.79L538.1,382.937a4.446,4.446,0,0,1,5.856,2.262l10.783,24.359a4.446,4.446,0,0,1-2.262,5.856l-39.543,17.506a31.435,31.435,0,0,1-12.434,2.705Z" transform="translate(-297.746 -229.327)" fill="#ccc"/><path d="M313.978,532.134a4.07,4.07,0,0,1-.69-.058L287.029,527.6h0a4,4,0,0,1-3.25-4.7l20.552-104.828a17.316,17.316,0,0,1,34.137,5.836L317.881,528.913a3.969,3.969,0,0,1-3.9,3.221Z" transform="translate(-281.252 -231.684)" fill="#ccc"/><circle cx="15.984" cy="15.984" r="15.984" transform="translate(2.696 291.263)" fill="#e6e6e6"/><circle cx="59.495" cy="59.495" r="59.495" transform="translate(36.726 51.219)" fill="#e6e6e6"/><circle cx="59.495" cy="59.495" r="59.495" transform="translate(36.726 51.219)" fill="#e6e6e6"/><circle cx="45.288" cy="45.288" r="45.288" transform="translate(50.933 65.426)" fill="#3c50e0"/><path d="M393.719,352.273a16.349,16.349,0,0,1-9.406-2.239,7.223,7.223,0,0,1-2.842-5.393,4.858,4.858,0,0,1,1.653-3.991,6.271,6.271,0,0,1,5.93-.854l-2.4-17.515,1.76-.242,2.817,20.6-1.469-.672a5.375,5.375,0,0,0-5.5.049,3.122,3.122,0,0,0-1.023,2.571,5.458,5.458,0,0,0,2.114,4.031,14.69,14.69,0,0,0,8.4,1.9Z" transform="translate(-292.204 -222.549)" fill="#2f2e41"/><rect width="9.565" height="1.776" transform="translate(76.189 101.243)" fill="#2f2e41"/><rect width="9.565" height="1.776" transform="translate(106.382 101.243)" fill="#2f2e41"/><path d="M353.165,329.274a45.3,45.3,0,0,1,38.418-44.77,45.283,45.283,0,1,0-.709,89.413A45.292,45.292,0,0,1,353.165,329.274Z" transform="translate(-287.424 -218.273)" opacity="0.2"/><path d="M427.028,531.925H336.452A14.669,14.669,0,0,1,321.8,517.274V415.151A14.669,14.669,0,0,1,336.452,400.5h13.764v4a10.223,10.223,0,0,0,10.212,10.212h42.623A10.223,10.223,0,0,0,413.263,404.5v-4h13.764a14.669,14.669,0,0,1,14.651,14.651V517.274a14.669,14.669,0,0,1-14.651,14.651Z" transform="translate(-285.519 -231.336)" fill="#e6e6e6"/><path d="M443.654,642.405H408.126V601.391l-46.4-71.143,29.752-19.4,46.195,70.834a32.135,32.135,0,0,1,5.22,17.02Z" transform="translate(-289.991 -243.694)" fill="#e6e6e6"/><path d="M379.11,676.4H344.478V572.5H379.11Z" transform="translate(-288.06 -250.6)" fill="#e6e6e6"/><path d="M421.716,578.012H345.348a7.556,7.556,0,0,1-7.547-7.547V542.047a7.556,7.556,0,0,1,7.547-7.547h76.368a7.556,7.556,0,0,1,7.547,7.547v28.415a7.556,7.556,0,0,1-7.547,7.547Z" transform="translate(-287.311 -246.343)" fill="#e6e6e6"/><path d="M455.77,674.028H414.478V646.5H455.77a13.764,13.764,0,0,1,0,27.528Z" transform="translate(-295.9 -258.888)" fill="#ccc"/><path d="M385.77,686.028H344.478V658.5H385.77a13.764,13.764,0,1,1,0,27.528Z" transform="translate(-288.06 -260.232)" fill="#ccc"/><path d="M433.443,450.717H400.586a3.108,3.108,0,0,1,0-6.217h32.856a3.108,3.108,0,0,1,0,6.217Z" transform="translate(-293.996 -236.263)" fill="#fff"/><path d="M433.443,463.217H400.586a3.108,3.108,0,0,1,0-6.217h32.856a3.108,3.108,0,0,1,0,6.217Z" transform="translate(-293.996 -237.664)" fill="#fff"/><path d="M476.45,689.78H281.98a.9.9,0,1,1,0-1.776H476.452a.9.9,0,1,1,0,1.776Z" transform="translate(-281.022 -263.541)" fill="#3f3d56"/><circle cx="15.984" cy="15.984" r="15.984" transform="translate(243.343 147.409)" fill="#e6e6e6"/><path d="M577.806,440.954a5.335,5.335,0,0,1-5.328-5.328v-191.8a5.328,5.328,0,1,1,10.656,0V435.635a5.335,5.335,0,0,1-5.328,5.319Z" transform="translate(-313.595 -213.19)" fill="#3f3d56"/><path d="M740.177,237.878c-4.681-4.094-20.751-16.837-41.487-19.164-15.513-1.731-33.638,2.363-51.547,20.281-14.369,14.369-27.918,21.179-40.28,20.254-12.62-.95-21.011-9.919-24.89-15.184a2.17,2.17,0,0,0-2.464-.782,2.193,2.193,0,0,0-1.536,2.114v66.29a2.24,2.24,0,0,0,1.27,2.016c4.84,2.291,22.27,9.9,39.817,9.9,10.3,0,20.637-2.62,28.487-10.479l.224-.224c13.905-13.534,44.567-10.75,66.928-6.331,9.254,1.83,17.085,3.935,21.724,5.283a3.989,3.989,0,0,0,5.1-3.836v-67.13a4.008,4.008,0,0,0-1.359-3.01Z" transform="translate(-314.218 -210.935)" fill="#3c50e0"/><circle cx="7.993" cy="7.993" r="7.993" transform="translate(453.798 199.8)" fill="#fff"/><circle cx="7.993" cy="7.993" r="7.993" transform="translate(439.591 287.711)" fill="#fff"/><circle cx="13.321" cy="13.321" r="13.321" transform="translate(408.51 222.001)" fill="#fff"/></g></svg>